{
    "asset" : {
        "generator" : "Khronos glTF Blender I/O v3.2.43",
        "version" : "2.0"
    },
    "scene" : 0,
    "scenes" : [
        {
            "name" : "Scene",
            "nodes" : [
                6
            ]
        }
    ],
    "nodes" : [
        {
            "mesh" : 0,
            "name" : "below_deck-convcol"
        },
        {
            "mesh" : 1,
            "name" : "bow-col"
        },
        {
            "mesh" : 2,
            "name" : "bridge-col"
        },
        {
            "mesh" : 3,
            "name" : "hull-col"
        },
        {
            "mesh" : 4,
            "name" : "rear-deck-col"
        },
        {
            "mesh" : 5,
            "name" : "top_deck-convcol"
        },
        {
            "children" : [
                0,
                1,
                2,
                3,
                4,
                5
            ],
            "name" : "pivot"
        }
    ],
    "materials" : [
        {
            "doubleSided" : true,
            "name" : "below_deck",
            "pbrMetallicRoughness" : {
                "baseColorTexture" : {
                    "index" : 0
                },
                "metallicFactor" : 0,
                "roughnessFactor" : 0.5
            }
        },
        {
            "doubleSided" : true,
            "name" : "bow",
            "pbrMetallicRoughness" : {
                "baseColorTexture" : {
                    "index" : 1
                },
                "metallicFactor" : 0,
                "roughnessFactor" : 0.5
            }
        },
        {
            "doubleSided" : true,
            "name" : "bridge",
            "pbrMetallicRoughness" : {
                "baseColorTexture" : {
                    "index" : 2
                },
                "metallicFactor" : 0,
                "roughnessFactor" : 0.5
            }
        },
        {
            "doubleSided" : true,
            "name" : "bridge_windows",
            "pbrMetallicRoughness" : {
                "baseColorFactor" : [
                    0.800000011920929,
                    0.800000011920929,
                    0.800000011920929,
                    1
                ],
                "metallicFactor" : 0,
                "roughnessFactor" : 0.5
            }
        },
        {
            "doubleSided" : true,
            "name" : "hull",
            "pbrMetallicRoughness" : {
                "baseColorTexture" : {
                    "index" : 3
                },
                "metallicFactor" : 0,
                "roughnessFactor" : 0.5
            }
        },
        {
            "doubleSided" : true,
            "name" : "rear_deck",
            "pbrMetallicRoughness" : {
                "baseColorTexture" : {
                    "index" : 4
                },
                "metallicFactor" : 0,
                "roughnessFactor" : 0.5
            }
        },
        {
            "doubleSided" : true,
            "name" : "top_deck",
            "pbrMetallicRoughness" : {
                "baseColorTexture" : {
                    "index" : 5
                },
                "metallicFactor" : 0,
                "roughnessFactor" : 0.5
            }
        }
    ],
    "meshes" : [
        {
            "name" : "Plane.001",
            "primitives" : [
                {
                    "attributes" : {
                        "POSITION" : 0,
                        "NORMAL" : 1,
                        "TEXCOORD_0" : 2
                    },
                    "indices" : 3,
                    "material" : 0
                }
            ]
        },
        {
            "name" : "Cylinder.002",
            "primitives" : [
                {
                    "attributes" : {
                        "POSITION" : 4,
                        "NORMAL" : 5,
                        "TEXCOORD_0" : 6
                    },
                    "indices" : 7,
                    "material" : 1
                }
            ]
        },
        {
            "name" : "Cube.004",
            "primitives" : [
                {
                    "attributes" : {
                        "POSITION" : 8,
                        "NORMAL" : 9,
                        "TEXCOORD_0" : 10
                    },
                    "indices" : 11,
                    "material" : 2
                },
                {
                    "attributes" : {
                        "POSITION" : 12,
                        "NORMAL" : 13,
                        "TEXCOORD_0" : 14
                    },
                    "indices" : 15,
                    "material" : 3
                }
            ]
        },
        {
            "name" : "Cylinder",
            "primitives" : [
                {
                    "attributes" : {
                        "POSITION" : 16,
                        "NORMAL" : 17,
                        "TEXCOORD_0" : 18
                    },
                    "indices" : 19,
                    "material" : 4
                }
            ]
        },
        {
            "name" : "Cylinder.004",
            "primitives" : [
                {
                    "attributes" : {
                        "POSITION" : 20,
                        "NORMAL" : 21,
                        "TEXCOORD_0" : 22
                    },
                    "indices" : 23,
                    "material" : 5
                }
            ]
        },
        {
            "name" : "Plane.002",
            "primitives" : [
                {
                    "attributes" : {
                        "POSITION" : 24,
                        "NORMAL" : 25,
                        "TEXCOORD_0" : 26
                    },
                    "indices" : 3,
                    "material" : 6
                }
            ]
        }
    ],
    "textures" : [
        {
            "sampler" : 0,
            "source" : 0
        },
        {
            "sampler" : 0,
            "source" : 0
        },
        {
            "sampler" : 0,
            "source" : 0
        },
        {
            "sampler" : 0,
            "source" : 0
        },
        {
            "sampler" : 0,
            "source" : 0
        },
        {
            "sampler" : 0,
            "source" : 0
        }
    ],
    "images" : [
        {
            "bufferView" : 4,
            "mimeType" : "image/png",
            "name" : "UVGRID"
        }
    ],
    "accessors" : [
        {
            "bufferView" : 0,
            "componentType" : 5126,
            "count" : 24,
            "max" : [
                7.337470531463623,
                -5.508480548858643,
                51.64564514160156
            ],
            "min" : [
                -7.337470531463623,
                -5.9667792320251465,
                -46.92486572265625
            ],
            "type" : "VEC3"
        },
        {
            "bufferView" : 1,
            "componentType" : 5126,
            "count" : 24,
            "type" : "VEC3"
        },
        {
            "bufferView" : 2,
            "componentType" : 5126,
            "count" : 24,
            "type" : "VEC2"
        },
        {
            "bufferView" : 3,
            "componentType" : 5123,
            "count" : 36,
            "type" : "SCALAR"
        },
        {
            "bufferView" : 5,
            "componentType" : 5126,
            "count" : 117,
            "max" : [
                10.775299072265625,
                4.783280372619629,
                -39.78704833984375
            ],
            "min" : [
                -10.775299072265625,
                -5.579238414764404,
                -58.935325622558594
            ],
            "type" : "VEC3"
        },
        {
            "bufferView" : 6,
            "componentType" : 5126,
            "count" : 117,
            "type" : "VEC3"
        },
        {
            "bufferView" : 7,
            "componentType" : 5126,
            "count" : 117,
            "type" : "VEC2"
        },
        {
            "bufferView" : 8,
            "componentType" : 5123,
            "count" : 342,
            "type" : "SCALAR"
        },
        {
            "bufferView" : 9,
            "componentType" : 5126,
            "count" : 642,
            "max" : [
                22.635690689086914,
                21.24700355529785,
                54.09177780151367
            ],
            "min" : [
                -22.635690689086914,
                4.164312839508057,
                31.901662826538086
            ],
            "type" : "VEC3"
        },
        {
            "bufferView" : 10,
            "componentType" : 5126,
            "count" : 642,
            "type" : "VEC3"
        },
        {
            "bufferView" : 11,
            "componentType" : 5126,
            "count" : 642,
            "type" : "VEC2"
        },
        {
            "bufferView" : 12,
            "componentType" : 5123,
            "count" : 1278,
            "type" : "SCALAR"
        },
        {
            "bufferView" : 13,
            "componentType" : 5126,
            "count" : 16,
            "max" : [
                22.415857315063477,
                20.12122344970703,
                33.83700942993164
            ],
            "min" : [
                -22.415857315063477,
                15.278036117553711,
                31.901662826538086
            ],
            "type" : "VEC3"
        },
        {
            "bufferView" : 14,
            "componentType" : 5126,
            "count" : 16,
            "type" : "VEC3"
        },
        {
            "bufferView" : 15,
            "componentType" : 5126,
            "count" : 16,
            "type" : "VEC2"
        },
        {
            "bufferView" : 16,
            "componentType" : 5123,
            "count" : 24,
            "type" : "SCALAR"
        },
        {
            "bufferView" : 17,
            "componentType" : 5126,
            "count" : 2100,
            "max" : [
                11.27534294128418,
                6.4372334480285645,
                61.030052185058594
            ],
            "min" : [
                -11.27534294128418,
                -8.407113075256348,
                -59.44073486328125
            ],
            "type" : "VEC3"
        },
        {
            "bufferView" : 18,
            "componentType" : 5126,
            "count" : 2100,
            "type" : "VEC3"
        },
        {
            "bufferView" : 19,
            "componentType" : 5126,
            "count" : 2100,
            "type" : "VEC2"
        },
        {
            "bufferView" : 20,
            "componentType" : 5123,
            "count" : 10320,
            "type" : "SCALAR"
        },
        {
            "bufferView" : 21,
            "componentType" : 5126,
            "count" : 514,
            "max" : [
                10.775299072265625,
                4.272964000701904,
                60.530052185058594
            ],
            "min" : [
                -10.775299072265625,
                -7.905487537384033,
                29.72640037536621
            ],
            "type" : "VEC3"
        },
        {
            "bufferView" : 22,
            "componentType" : 5126,
            "count" : 514,
            "type" : "VEC3"
        },
        {
            "bufferView" : 23,
            "componentType" : 5126,
            "count" : 514,
            "type" : "VEC2"
        },
        {
            "bufferView" : 24,
            "componentType" : 5123,
            "count" : 1806,
            "type" : "SCALAR"
        },
        {
            "bufferView" : 25,
            "componentType" : 5126,
            "count" : 24,
            "max" : [
                10.635207176208496,
                0.5187859535217285,
                29.85190773010254
            ],
            "min" : [
                -10.715653419494629,
                0.06048727035522461,
                -39.908287048339844
            ],
            "type" : "VEC3"
        },
        {
            "bufferView" : 26,
            "componentType" : 5126,
            "count" : 24,
            "type" : "VEC3"
        },
        {
            "bufferView" : 27,
            "componentType" : 5126,
            "count" : 24,
            "type" : "VEC2"
        }
    ],
    "bufferViews" : [
        {
            "buffer" : 0,
            "byteLength" : 288,
            "byteOffset" : 0
        },
        {
            "buffer" : 0,
            "byteLength" : 288,
            "byteOffset" : 288
        },
        {
            "buffer" : 0,
            "byteLength" : 192,
            "byteOffset" : 576
        },
        {
            "buffer" : 0,
            "byteLength" : 72,
            "byteOffset" : 768
        },
        {
            "buffer" : 0,
            "byteLength" : 134836,
            "byteOffset" : 840
        },
        {
            "buffer" : 0,
            "byteLength" : 1404,
            "byteOffset" : 135676
        },
        {
            "buffer" : 0,
            "byteLength" : 1404,
            "byteOffset" : 137080
        },
        {
            "buffer" : 0,
            "byteLength" : 936,
            "byteOffset" : 138484
        },
        {
            "buffer" : 0,
            "byteLength" : 684,
            "byteOffset" : 139420
        },
        {
            "buffer" : 0,
            "byteLength" : 7704,
            "byteOffset" : 140104
        },
        {
            "buffer" : 0,
            "byteLength" : 7704,
            "byteOffset" : 147808
        },
        {
            "buffer" : 0,
            "byteLength" : 5136,
            "byteOffset" : 155512
        },
        {
            "buffer" : 0,
            "byteLength" : 2556,
            "byteOffset" : 160648
        },
        {
            "buffer" : 0,
            "byteLength" : 192,
            "byteOffset" : 163204
        },
        {
            "buffer" : 0,
            "byteLength" : 192,
            "byteOffset" : 163396
        },
        {
            "buffer" : 0,
            "byteLength" : 128,
            "byteOffset" : 163588
        },
        {
            "buffer" : 0,
            "byteLength" : 48,
            "byteOffset" : 163716
        },
        {
            "buffer" : 0,
            "byteLength" : 25200,
            "byteOffset" : 163764
        },
        {
            "buffer" : 0,
            "byteLength" : 25200,
            "byteOffset" : 188964
        },
        {
            "buffer" : 0,
            "byteLength" : 16800,
            "byteOffset" : 214164
        },
        {
            "buffer" : 0,
            "byteLength" : 20640,
            "byteOffset" : 230964
        },
        {
            "buffer" : 0,
            "byteLength" : 6168,
            "byteOffset" : 251604
        },
        {
            "buffer" : 0,
            "byteLength" : 6168,
            "byteOffset" : 257772
        },
        {
            "buffer" : 0,
            "byteLength" : 4112,
            "byteOffset" : 263940
        },
        {
            "buffer" : 0,
            "byteLength" : 3612,
            "byteOffset" : 268052
        },
        {
            "buffer" : 0,
            "byteLength" : 288,
            "byteOffset" : 271664
        },
        {
            "buffer" : 0,
            "byteLength" : 288,
            "byteOffset" : 271952
        },
        {
            "buffer" : 0,
            "byteLength" : 192,
            "byteOffset" : 272240
        }
    ],
    "samplers" : [
        {
            "magFilter" : 9729,
            "minFilter" : 9987
        }
    ],
    "buffers" : [
        {
            "byteLength" : 272432,
            "uri" : "data:application/octet-stream;base64,"
        }
    ]
}
